<svg id="Layer_1" data-name="Layer 1" xmlns="http://www.w3.org/2000/svg" viewBox="0 0 108 49.71"><defs><style>.cls-1{fill:#fff;}</style></defs><title>NASEN 1c w</title><path class="cls-1" d="M107.76,38.87H.24a.24.24,0,1,1,0-.48H107.76a.24.24,0,0,1,0,.48Z"/><path class="cls-1" d="M20.81,34.37a.9.9,0,0,1-1-.59l-8.4-19.67c-.14-.34-.39-.2-.39.05V33.39c0,.73-.24,1-1,1H7.14c-.74,0-1-.25-1-1V1.17c0-.73.24-1,1-1H9.33c.54,0,.78.09,1,.63l8.4,19.67c.14.3.39.2.39,0V1.17c0-.73.24-1,1-1H23c.73,0,1,.24,1,1V33.39c0,.73-.25,1-1,1Z"/><path class="cls-1" d="M98.67,34.37a.9.9,0,0,1-1-.59l-8.4-19.67c-.14-.34-.39-.2-.39.05V33.39c0,.73-.24,1-1,1H85c-.74,0-1-.25-1-1V1.17c0-.73.24-1,1-1h2.19c.54,0,.78.09,1,.63l8.4,19.67c.14.3.39.2.39,0V1.17c0-.73.24-1,1-1h2.93c.74,0,1,.24,1,1V33.39c0,.73-.24,1-1,1Z"/><path class="cls-1" d="M47.56,26.56c0-.83.2-1.08,1-1.08h2.83c.63,0,1,.25,1,1.13,0,1.9,1,3.46,3,3.46a3,3,0,0,0,3-2.88c.93-5.81-9.81-11.42-10.3-19.48A7.11,7.11,0,0,1,62.26,6.49c.09,1.32,0,1.56-1,1.56H58.59c-.73,0-1-.24-1-1a2.28,2.28,0,0,0-2.35-2.59c-2.24,0-2.49,2.2-2.39,3.17.54,5.47,9.33,10.4,10.25,18.07a7.82,7.82,0,1,1-15.57.83Z"/><path class="cls-1" d="M66.89,33.39V1.17c0-.73.25-1,1-1h10.3c.73,0,1,.24,1,1V3.81c0,.73-.25,1-1,1H72.75c-1,0-1,0-1,1v7.32c0,1,0,1,1,1h5.42c.73,0,1,.24,1,1v2.63c0,.73-.25,1-1,1H72.75c-1,0-1,0-1,1V28.8c0,1,0,1,1,1h5.42c.73,0,1,.24,1,1v2.63c0,.73-.25,1-1,1H67.87C67.14,34.37,66.89,34.12,66.89,33.39Z"/><path class="cls-1" d="M33,30.52l1,.1.24-2.21-.8-.08a.12.12,0,0,1-.1-.14l.16-1.52a.14.14,0,0,1,.14-.11l.68.08,2.3-13.31a2.46,2.46,0,0,1,.87-.16L38.8.77C38.66.3,38.46.2,37.8.2H35.16c-.78,0-.93.14-1.07.87L27.94,33.54c-.15.83.34.83.83.83h3.7l.41-3.75A.12.12,0,0,1,33,30.52Z"/><path class="cls-1" d="M45,33.54,39.3,3.35l-1.07,9.91a3.09,3.09,0,0,1,.89.35l-.6,13.49.68.07a.12.12,0,0,1,.1.13l-.16,1.53a.12.12,0,0,1-.13.1l-.82-.09L38,31.05l1,.11a.11.11,0,0,1,.1.13l-.33,3.08h5.48C44.68,34.37,45.17,34.37,45,33.54Z"/><path class="cls-1" d="M8.24,49.67c-.12,0-.17,0-.19-.13L8,49.08c0-.17,0-.17-.19-.17H7c-.16,0-.16,0-.2.17l-.07.46c0,.13-.08.13-.19.13H6c-.09,0-.17,0-.15-.14L7,43.8c0-.13,0-.16.19-.16h.46c.14,0,.17,0,.19.16L8.9,49.53c0,.14-.06.14-.15.14ZM7,47.93c0,.17,0,.17.15.17h.48c.17,0,.17,0,.15-.17l-.35-2.1a0,0,0,0,0-.07,0Z"/><path class="cls-1" d="M14.25,43.64c.72,0,1.38.45,1.38,1.64V48c0,1.19-.66,1.63-1.38,1.63h-1c-.13,0-.17,0-.17-.17V43.81c0-.13,0-.17.17-.17Zm-.17,5.22h.17c.27,0,.52-.17.52-.62V45.07c0-.45-.25-.62-.52-.62h-.17c-.17,0-.17,0-.17.17v4.06C13.91,48.86,13.91,48.86,14.08,48.86Z"/><path class="cls-1" d="M19.46,49.67c-.11,0-.16,0-.19-.13l-.08-.46c0-.17,0-.17-.18-.17h-.77c-.17,0-.17,0-.2.17l-.08.46c0,.13-.08.13-.19.13h-.51c-.09,0-.18,0-.15-.14l1.08-5.73c0-.13.06-.16.19-.16h.47c.14,0,.16,0,.19.16l1.09,5.73c0,.14-.06.14-.15.14Zm-1.23-1.74c0,.17,0,.17.15.17h.48c.17,0,.17,0,.15-.17l-.36-2.1a0,0,0,0,0-.07,0Z"/><path class="cls-1" d="M24.31,43.64c.08,0,.18,0,.14.15L23.2,49.52c0,.13-.06.15-.19.15h-.47c-.14,0-.16,0-.19-.15l-1.26-5.73c0-.15.06-.15.15-.15h.52c.11,0,.16,0,.19.13l.79,3.91s.06,0,.07,0l.79-3.91c0-.13.08-.13.19-.13Z"/><path class="cls-1" d="M26,49.5V43.81c0-.13.05-.17.17-.17H28c.13,0,.18,0,.18.17v.47c0,.13-.05.17-.18.17H27c-.18,0-.18,0-.18.17v1.3c0,.17,0,.17.18.17H28c.13,0,.18,0,.18.17v.47c0,.13-.05.17-.18.17H27c-.18,0-.18,0-.18.17v1.62c0,.17,0,.17.18.17H28c.13,0,.18,0,.18.18v.46c0,.13-.05.17-.18.17H26.14C26,49.67,26,49.63,26,49.5Z"/><path class="cls-1" d="M33.57,43.64c.71,0,1.38.45,1.38,1.64V46c0,1.19-.67,1.64-1.38,1.64h-.26c-.09,0-.09,0-.09.17V49.5c0,.13,0,.17-.17.17h-.52c-.13,0-.17,0-.17-.17V43.81c0-.13,0-.17.17-.17Zm-.17,3.22h.17c.27,0,.51-.18.51-.62V45.07c0-.45-.24-.62-.51-.62H33.4c-.18,0-.18,0-.18.17v2.06C33.22,46.86,33.22,46.86,33.4,46.86Z"/><path class="cls-1" d="M38.53,43.64H39c.13,0,.17,0,.17.17v4.26c0,1.19-.66,1.64-1.37,1.64s-1.38-.45-1.38-1.64V43.81c0-.13,0-.17.17-.17h.52c.13,0,.17,0,.17.17V48.3c0,.44.25.62.52.62s.51-.18.51-.62V43.81C38.35,43.68,38.4,43.64,38.53,43.64Z"/><path class="cls-1" d="M43.48,45.24v.28A1.62,1.62,0,0,1,43,46.93l.51,2.56c0,.14,0,.18-.1.18h-.54c-.11,0-.17,0-.19-.13l-.44-2.31a.09.09,0,0,0-.1-.08h-.17c-.17,0-.17,0-.17.17V49.5c0,.13,0,.17-.17.17h-.52c-.13,0-.17,0-.17-.17V43.81c0-.13,0-.17.17-.17h1.12C42.91,43.64,43.48,44.06,43.48,45.24Zm-1.55-.84c-.17,0-.17,0-.17.17v1.65c0,.17,0,.17.17.17h.26c.27,0,.43-.17.43-.61V45c0-.45-.16-.62-.43-.62Z"/><path class="cls-1" d="M46.42,48.92c.27,0,.52-.18.52-.62v-.06c0-.13,0-.18.17-.18h.51c.13,0,.18.11.17.23a1.34,1.34,0,0,1-1.37,1.42c-.71,0-1.38-.45-1.38-1.64V45.24c0-1.18.67-1.63,1.38-1.63A1.33,1.33,0,0,1,47.79,45c0,.12,0,.22-.17.22h-.51c-.13,0-.17,0-.17-.17V45c0-.45-.25-.62-.52-.62s-.51.17-.51.62V48.3C45.91,48.74,46.16,48.92,46.42,48.92Z"/><path class="cls-1" d="M51,46.9h-.52c-.17,0-.17,0-.17.17V49.5c0,.13,0,.17-.17.17h-.52c-.13,0-.17,0-.17-.17V43.81c0-.13,0-.17.17-.17h.52c.13,0,.17,0,.17.17v2.11c0,.17,0,.17.17.17H51c.17,0,.17,0,.17-.17V43.81c0-.13.05-.17.17-.17h.52c.13,0,.17,0,.17.17V49.5c0,.13,0,.17-.17.17h-.52c-.12,0-.17,0-.17-.17V47.07C51.12,46.9,51.12,46.9,51,46.9Z"/><path class="cls-1" d="M55.9,49.67c-.11,0-.16,0-.19-.13l-.08-.46c0-.17,0-.17-.19-.17h-.76c-.17,0-.17,0-.2.17l-.08.46c0,.13-.08.13-.19.13h-.52c-.08,0-.17,0-.14-.14l1.08-5.73c0-.13,0-.16.19-.16h.47c.13,0,.16,0,.19.16l1.08,5.73c0,.14-.06.14-.14.14Zm-1.23-1.74c0,.17,0,.17.14.17h.49c.17,0,.17,0,.14-.17l-.35-2.1a0,0,0,0,0-.07,0Z"/><path class="cls-1" d="M57.87,48.3c0-.15,0-.19.19-.19h.5c.11,0,.17,0,.17.19,0,.34.17.62.52.62a.55.55,0,0,0,.54-.51c.16-1-1.73-2-1.82-3.44a1.25,1.25,0,0,1,2.5-.22c0,.24,0,.28-.17.28h-.48c-.13,0-.17,0-.17-.17a.4.4,0,0,0-.41-.46c-.4,0-.44.39-.43.56.1,1,1.65,1.84,1.81,3.19a1.38,1.38,0,1,1-2.75.15Z"/><path class="cls-1" d="M62.15,49.5V43.81c0-.13,0-.17.17-.17h1.82c.13,0,.17,0,.17.17v.47c0,.13,0,.17-.17.17h-1c-.18,0-.18,0-.18.17v1.3c0,.17,0,.17.18.17h1c.13,0,.17,0,.17.17v.47c0,.13,0,.17-.17.17h-1c-.18,0-.18,0-.18.17v1.62c0,.17,0,.17.18.17h1c.13,0,.17,0,.17.18v.46c0,.13,0,.17-.17.17H62.32C62.19,49.67,62.15,49.63,62.15,49.5Z"/><path class="cls-1" d="M69.23,49.67h-.52c-.13,0-.17,0-.17-.17V43.81c0-.13,0-.17.17-.17h.52c.13,0,.17,0,.17.17V49.5C69.4,49.63,69.36,49.67,69.23,49.67Z"/><path class="cls-1" d="M73.71,49.67c-.08,0-.14,0-.17-.1L72.06,46.1c0-.06-.07,0-.07,0V49.5c0,.13,0,.17-.17.17H71.3c-.13,0-.17,0-.17-.17V43.81c0-.13,0-.17.17-.17h.39c.09,0,.14,0,.17.11l1.48,3.48c0,.05.07,0,.07,0V43.81c0-.13,0-.17.17-.17h.52c.13,0,.17,0,.17.17V49.5c0,.13,0,.17-.17.17Z"/><path class="cls-1" d="M76.69,49.67h-.52c-.13,0-.17,0-.17-.17V43.81c0-.13,0-.17.17-.17h.52c.13,0,.17,0,.17.17V49.5C76.86,49.63,76.82,49.67,76.69,49.67Z"/><path class="cls-1" d="M78.46,43.64H80.7c.13,0,.17,0,.17.17v.47c0,.13,0,.17-.17.17h-.52c-.17,0-.17,0-.17.17V49.5c0,.13-.05.17-.17.17h-.52c-.13,0-.17,0-.17-.17V44.62c0-.17,0-.17-.17-.17h-.52c-.13,0-.18,0-.18-.17v-.47C78.28,43.68,78.33,43.64,78.46,43.64Z"/><path class="cls-1" d="M83,49.67h-.52c-.12,0-.17,0-.17-.17V43.81c0-.13,0-.17.17-.17H83c.13,0,.17,0,.17.17V49.5C83.15,49.63,83.11,49.67,83,49.67Z"/><path class="cls-1" d="M87.07,49.67c-.11,0-.17,0-.19-.13l-.08-.46c0-.17,0-.17-.19-.17h-.77c-.16,0-.16,0-.19.17l-.08.46c0,.13-.08.13-.19.13h-.52c-.08,0-.17,0-.14-.14L85.8,43.8c0-.13,0-.16.19-.16h.47c.13,0,.16,0,.19.16l1.08,5.73c0,.14-.06.14-.14.14Zm-1.23-1.74c0,.17,0,.17.14.17h.49c.17,0,.17,0,.14-.17l-.35-2.1a0,0,0,0,0-.07,0Z"/><path class="cls-1" d="M88.86,43.64H91.1c.13,0,.18,0,.18.17v.47c0,.13,0,.17-.18.17h-.51c-.18,0-.18,0-.18.17V49.5c0,.13,0,.17-.17.17h-.52c-.12,0-.17,0-.17-.17V44.62c0-.17,0-.17-.16-.17h-.53c-.13,0-.17,0-.17-.17v-.47C88.69,43.68,88.73,43.64,88.86,43.64Z"/><path class="cls-1" d="M93.39,49.67h-.52c-.13,0-.17,0-.17-.17V43.81c0-.13,0-.17.17-.17h.52c.13,0,.17,0,.17.17V49.5C93.56,49.63,93.52,49.67,93.39,49.67Z"/><path class="cls-1" d="M98.29,43.64c.09,0,.18,0,.15.15l-1.26,5.73c0,.13-.05.15-.19.15h-.46c-.14,0-.17,0-.19-.15l-1.26-5.73c0-.15.06-.15.15-.15h.51c.11,0,.17,0,.19.13l.8,3.91s.06,0,.06,0l.8-3.91c0-.13.07-.13.19-.13Z"/><path class="cls-1" d="M100,49.5V43.81c0-.13,0-.17.17-.17H102c.13,0,.17,0,.17.17v.47c0,.13,0,.17-.17.17h-1c-.17,0-.17,0-.17.17v1.3c0,.17,0,.17.17.17h1c.13,0,.17,0,.17.17v.47c0,.13,0,.17-.17.17h-1c-.17,0-.17,0-.17.17v1.62c0,.17,0,.17.17.17h1c.13,0,.17,0,.17.18v.46c0,.13,0,.17-.17.17h-1.82C100,49.67,100,49.63,100,49.5Z"/></svg>